<svg id="nus_background" xmlns="http://www.w3.org/2000/svg" viewBox="0 0 841.89 429.86"><defs><style>.cls-1,.cls-10,.cls-12,.cls-13,.cls-14,.cls-15,.cls-16,.cls-17,.cls-18,.cls-19,.cls-2,.cls-21,.cls-22,.cls-23,.cls-24,.cls-25,.cls-26,.cls-27,.cls-28,.cls-29,.cls-3,.cls-30,.cls-31,.cls-32,.cls-33,.cls-34,.cls-35,.cls-36,.cls-37,.cls-38,.cls-39,.cls-4,.cls-40,.cls-41,.cls-42,.cls-43,.cls-44,.cls-45,.cls-46,.cls-47,.cls-48,.cls-5,.cls-50,.cls-52,.cls-53,.cls-54,.cls-55,.cls-6,.cls-65,.cls-66,.cls-67,.cls-68,.cls-69,.cls-7,.cls-72,.cls-77,.cls-79,.cls-8,.cls-82,.cls-84,.cls-9{fill:none;stroke-linecap:round}.cls-1,.cls-17,.cls-36,.cls-40,.cls-66{stroke:#66b2b0}.cls-1,.cls-15,.cls-16,.cls-17,.cls-18,.cls-19,.cls-28,.cls-3,.cls-30,.cls-34,.cls-37,.cls-38,.cls-39,.cls-4,.cls-40,.cls-41,.cls-42,.cls-43,.cls-44,.cls-45,.cls-46,.cls-47,.cls-48,.cls-5,.cls-50,.cls-52,.cls-53,.cls-54,.cls-55,.cls-65,.cls-66,.cls-67,.cls-68,.cls-69,.cls-7,.cls-72,.cls-77,.cls-8,.cls-82{stroke-miterlimit:10}.cls-1,.cls-2,.cls-30,.cls-35,.cls-37,.cls-39,.cls-43,.cls-46,.cls-47,.cls-5,.cls-68,.cls-69,.cls-7,.cls-79,.cls-8{stroke-width:.4px}.cls-10,.cls-2,.cls-39,.cls-4,.cls-50,.cls-65,.cls-9{stroke:#f58220}.cls-10,.cls-12,.cls-13,.cls-14,.cls-2,.cls-21,.cls-22,.cls-23,.cls-24,.cls-25,.cls-26,.cls-27,.cls-29,.cls-31,.cls-32,.cls-33,.cls-35,.cls-36,.cls-6,.cls-79,.cls-84,.cls-9{stroke-linejoin:round}.cls-13,.cls-3,.cls-37,.cls-41,.cls-84{stroke:#e8e7e3}.cls-14,.cls-15,.cls-18,.cls-19,.cls-23,.cls-25,.cls-27,.cls-29,.cls-3,.cls-32,.cls-33,.cls-34,.cls-36,.cls-4,.cls-40,.cls-44,.cls-48,.cls-52,.cls-77,.cls-82,.cls-84,.cls-9{stroke-width:2px}.cls-19,.cls-21,.cls-5,.cls-55{stroke:#0a4054}.cls-32,.cls-47,.cls-48,.cls-6,.cls-67{stroke:#088a8f}.cls-10,.cls-12,.cls-13,.cls-16,.cls-17,.cls-22,.cls-24,.cls-26,.cls-28,.cls-31,.cls-38,.cls-41,.cls-42,.cls-45,.cls-50,.cls-54,.cls-55,.cls-6,.cls-67,.cls-72{stroke-width:.5px}.cls-12,.cls-18,.cls-7,.cls-72{stroke:#f4f5f3}.cls-14,.cls-15,.cls-16,.cls-8{stroke:#d3c7c8}.cls-21,.cls-65{stroke-width:3px}.cls-22,.cls-23,.cls-42,.cls-43,.cls-44{stroke:#a45950}.cls-24,.cls-25,.cls-54,.cls-68,.cls-77,.cls-79{stroke:#f9c996}.cls-26,.cls-27,.cls-38,.cls-46,.cls-82{stroke:#f9aa19}.cls-28,.cls-30,.cls-31,.cls-33,.cls-34,.cls-35{stroke:#9fd1d0}.cls-29,.cls-45,.cls-52,.cls-53,.cls-69{stroke:#22b0ae}.cls-53{stroke-width:.35px}.cls-57{fill:#f9c996}.cls-58{fill:#f4f5f3}.cls-59{fill:#22b0ae}.cls-60{fill:#088a8f}.cls-61{fill:#9fd1d0}.cls-62{fill:#66b2b0}.cls-63{fill:#f58220}.cls-66{stroke-width:.25px}</style></defs><path class="cls-1" d="M484.79 415.21l15.76.99"/><path class="cls-2" d="M464.9 413.07l-.14-3.98-.09-4.34"/><path class="cls-3" d="M663.79 175.63L673.8 375.5"/><path class="cls-4" d="M566.53 414.58L564.87 374"/><path class="cls-5" d="M646.24 317.63l47.3-15.45"/><path class="cls-6" d="M692.31 164.18l47.46-36.12"/><path class="cls-7" d="M676.66 259.55l-6.68-130.75"/><path class="cls-8" d="M637.06 278.72l39.39-19.42"/><path class="cls-5" d="M702.34 361.73l50.25-7.31"/><path class="cls-9" d="M736.47 159.54l-29.49 20.32M687.57 95.01l3.98 69.89M655.69 95.39l3.79 69.36M622.48 176.5l-19.54 17.62-62.28.91M571.8 221.27l9.71-9.36M561.92 216.68l1.53 41.25M509.45 245.34l32.28-.17M550.08 264.65l-7.5 5.87M512.71 302.27l1.42 57.85M521.13 357.66l-35.57.13M499.94 347.48l.18 14.05M485.96 371.09l35.57.05M513.46 366.65l189.41-.01M519.6 395.43l34.92.16M565.85 414.21l-.19-9.92M565.63 415.81l-1.07-40.68-.47-10.2M598.48 380.72l1.38 42.54M626.74 414.35l12.6.45M651.56 423.65l231.73.25M833.24 423.11l-13.13-185.75M756.96 241.82l61.44-26.4M515.96 155.87l5.6-10.15M582.62 306.98l52.58-26.87M512.92 313.56l186.67-.35M637.61 371.19l-3.24-68.78M464.12 378.4l9.92-3.21-.2-10.29"/><path class="cls-10" d="M575.83 145.2l2.18 59.22M557.82 181.16l-87.38.67M474.07 341.6l32.08-21.24M503.04 319.83l164.01-.43M646.73 317.76l4.94 105.67M654.8 344.34l-.88-19.41-88.5.38M576.77 320.11l-11.18 5.18M565.59 325.41l.73 19.1M542.86 328.88l93.72-.15M576.96 319.76l3.69 100.18M599.41 397.86l39.14-1.78h-53.3"/><path class="cls-10" d="M522.37 371.23l114.75-.11-12.26 1.63-8.82-206.24M441.24 413.47l-.34-35.02 7.04-3.18 115.69-.18"/><path class="cls-10" d="M554.41 394.9l-.6-17.97-8.07 1.46.96 26.68M477.86 404.6l160.94-.32M484.54 403.71l.25 11.45M489.66 404.54l.23 10.35M505.32 415.71l-18.51-1.04M508.7 419.81l45.74 3.87M615.62 353.23l2 48.79 74.39.11M630.4 211.79l-11.95 9.26M622.59 176.94l8.8 198.62M581.98 302.53l111.93-.21M820.62 256.63l-85.08.54 5.37 87.07-51.4 9.01-3.93-75.34 73.73-.13M728.66 144.16l4.58 71.83-170.64.73M531.7 205.75l95.88-.63M606.22 270.39l-3.27-75.62M533.76 277.69l96.84-.25M639.58 162.74l80.48-.61M706.06 160.86l27.56-.13M752.82 178.73l15.93 240.29"/><path class="cls-10" d="M657.47 401.08h86.8l1.15 18.17"/><path class="cls-10" d="M705.47 416.36l-3.09-54.67-54.11 7.87M683.21 415.93l-2.56-51.16"/><path class="cls-9" d="M630.78 165.54l38.97-36.73"/><path class="cls-10" d="M464.52 396.15l-.25-17.69M474.52 396.24l-.6-21.01M477.19 374.13l-.12-10.6-2.82 1.21M490.5 369.63l13.61-4.42 59.56-.11M513.46 366.41l-.15-6.38"/><path class="cls-9" d="M509.77 361.7l4.23-1.64"/><path class="cls-10" d="M505.26 403.54l-1.05-38.23"/><path class="cls-5" d="M678.41 319.26l2.44 45.66"/><path stroke="#d3c7c8" stroke-width=".5" stroke-linejoin="round" fill="none" stroke-linecap="round" d="M505.37 412.86l-.13-12.67"/><path class="cls-12" d="M448.52 404.66l-.4-29.53M441.05 378.44l46.48-.02"/><path class="cls-13" d="M483.62 355.42l.93 48.94"/><path class="cls-14" d="M537.45 417.46l4.06.27-.43-15.65"/><path class="cls-15" d="M758.75 143.75l-29.82.41M670.26 128.21l33.08-.11M537.38 417.49l-22.48-1.26M631.21 375.29l43 .34M700.12 313.05l2.59 49.04M614.98 336.47l39.18-11.46M558.34 180.76l6.5 194.19M542.93 328.89l19.75-9.17M521.82 145.66l54.15-.39M470.46 181.85l3.26 182.69M464.05 378.21l48.86.17M486.73 404.18l.19 10.6M505.31 415.51l60.64.39M693.01 417.69l-74.56-.15M650.68 414.82l-105.07.11M636.57 405.15l246.87-3.07M554.76 423.59l31.84 2.61M707.32 179.77l-26.68.28M668.12 115l19.8-19.78"/><path class="cls-14" d="M509.75 245.31l-7.07 8.43 30.72-.02 8.74-8.59"/><path class="cls-15" d="M547.09 413.45l-.19-8.52"/><path class="cls-13" d="M580.1 400.48l-71.97.11"/><path class="cls-15" d="M514.92 415.49l-1.19-48.74M519.85 395.52l-3.35-130.53M510.37 270.82l32.5-.1M542.08 244.86l-1.42-49.83M522.65 404.02l-1.23-46.31M693.01 417.17l-.63-14.92-155.4.01-1.35-47.49M599.87 397.81l283.64.01"/><path class="cls-16" d="M650.46 257.48l-86.6.52"/><path class="cls-15" d="M648.58 369.48l-7.55-165.71 30.15-23.26M655 344.33l2.75 56.71M601.42 181.15l-23.22 23.26M485.02 357.89l80.73-32.72M478.13 404.6l-.66-30.53M585.48 395.97l-3.14-88.2M631.11 203.96l29.4-23.26"/><path class="cls-14" d="M740.5 128.06l8.34 131.4-51.21 19.41"/><path class="cls-15" d="M596.61 321.2l50.14.31M617.76 402.07l.69 15.1M647.87 343.19l-50.28.23M615.18 336.94l.6 16.4M744.43 401.02l-52.05 1.23M659.54 165.01l-28.38.73"/><path class="cls-14" d="M683.85 242.24l49.4-26.29 2.5 41.05"/><path class="cls-13" d="M554.74 423.69l-.97-25.79M584.63 396.17l-30.92 1.68"/><path class="cls-17" d="M540.88 202.97l62.29-.46 19.85-16.52"/><path class="cls-18" d="M663.75 175.88l-40.99-.04"/><path class="cls-19" d="M617.88 417.61l-75.99.01"/><path class="cls-5" d="M719.78 162.12l6.35 155.56"/><path stroke-width="3" stroke="#0a4054" stroke-miterlimit="10" fill="none" stroke-linecap="round" d="M678.11 319.61l-6.93-139.1"/><path class="cls-19" d="M502.88 319.77l9.46-6.29M599.98 423.92l51.47-.19M510.57 361.45l59.79.21"/><path class="cls-21" d="M821.59 256.7l-9.38-113.72-52.31.82"/><path class="cls-19" d="M485.63 357.96l.29 12.73M634.62 307.21l-4.39-96.3M627.44 154.91l-11.63 11.7M522.65 404.13l116.55.07"/><g id="Red"><path class="cls-22" d="M733.23 215.85l85.16-.47"/><path class="cls-23" d="M473.75 175.18l-3.05 6.65M804.8 119.23l-55.91.66-8.72 7.99M728.41 144.07l31.49-.27M755.26 354.46l2.74 63.26M636.05 328.69l31.03-9.35"/><path class="cls-22" d="M667.34 319.27l-6.83-138.59-59.04.47M570.05 166.86l1.96 54.51M581.7 211.97l3.1 84.7M582.21 307.6l-30.82 14.93"/><path class="cls-23" d="M562.73 319.63l1.51 45.47"/><path class="cls-22" d="M500.11 347.28l-16.29 8.06M489.69 404.24l-.78-34.13 2.74-.86M514.64 373.01l-4.22 1.11M448.81 414.06l-.21-9.38M768.81 419.89l-187.97-.06M611.93 404.94l-65.07.07"/><path class="cls-23" d="M550.48 264.5l-34.13.29-11.67 10.23"/><path class="cls-22" d="M692.31 402.08l-2.56-48.91M649.43 378.33l24.84-2.79M610.85 378.27l-4.36-107.92M645.02 270.25l-14.22 7.12-3.68-72.17"/><path class="cls-23" d="M513.48 396.11l6.47-.47"/><path class="cls-21" d="M749.47 119.88l2.91 59.31-45.05.58"/><path class="cls-23" d="M574.68 302.29l9.8-5.47"/></g><path class="cls-24" d="M465.07 413.48l-15.91.45"/><g id="Nude"><path class="cls-25" d="M683.43 242.38l-3.28-62.32M648.44 216.19l-37.62 26.61M615.88 166.57l-46.27.31M499.95 361.58l1 41.37M448.61 413.96l-7.3-.62M639.23 414.64l-12.75-.13M758.32 417.46l-75.26-1.72"/><path class="cls-24" d="M703.16 128.42l-44.04 36.9M687.65 95.02l-32.05.33M627.63 154.74l-111.99 1.13M663.84 175.84l-36.48 29.36M630.66 203.98l-52.92.36M650.47 257.42l-1.97-40.92M509.28 245.59l.64 24.97"/></g><path class="cls-24" d="M544.57 328.93l-17.88-.06M539.07 336.67l.5 16.69M564.91 374.95l-11.11 1.88M625.01 372.96l1.42 29.37"/><path class="cls-26" d="M626.47 402.2l.27 12.35"/><path class="cls-24" d="M650.17 403.94l-1.64-34.58M757.72 402.23l-220.82.04"/><path class="cls-25" d="M596.89 321.34l2.18 76.81"/><path class="cls-24" d="M511.32 414.24l-.23-9.76M651.81 423.67l231.71.17"/><path class="cls-25" d="M532.06 206.65l1.44 70.89"/><path class="cls-26" d="M448.46 404.71l31.35-.05"/><path class="cls-27" d="M670.3 128.6l-39.2 37.19M535.71 354.7l219.05-.19M637.58 370.95l1.34 24.86M650.41 414.55l33.12 1.15M547.18 413.39l19.18.37"/><path class="cls-26" d="M546.01 378.33l-3.09-107.69 63.52-.24M550.5 264.07l-2.31-69.63M509.72 245.5l.75 25.29M519.99 297.13l64.72-.4M508.08 400.52l-1.83-80.43M536.91 402.18l80.82-.13M611.15 242.8l72.71-.46 1.93 35.57M671.42 180.6l-11.15.13M651.64 423.61l-110.18-5.88M508.71 419.77l72.2.16"/><path class="cls-27" d="M692.67 279.36l1.56 26.5"/><path class="cls-26" d="M678.48 319.33l21.46-6.2M473.85 175.82l3.24 187.81"/><path class="cls-6" d="M508.08 400.32l.45 19.3"/><path class="cls-28" d="M474.7 404.73v7.91"/><path class="cls-29" d="M464.81 413.65l82.08.12"/><path class="cls-30" d="M676.66 259.23l72.1-.11"/><path class="cls-6" d="M464.52 395.94l.15 8.57"/><path class="cls-31" d="M631.27 375.62l-20.69 2.75"/><g id="Light_blue" data-name="Light blue"><path class="cls-32" d="M475.64 417.08l33.1 2.74M501.27 418.15l-.33-16.06M505.36 415.64l60.49.25M545.55 415.04l105.13.03M693.03 417.75l52.67 1.46M768.29 417.66l-11.08-175.79M759.69 143.71l-25.8 17.64M694.3 306.24l-47.26 14.84M667.15 319.3l11.28.11M636.42 279.02l-5.36-113.69M515.91 155.95l3.8 141.45M532.06 205.85l8.29-10.89M564.14 174.14l5.78-7.19M615.04 336.59l-3.87-93.91M570.6 361.64l6.19-1.52M506.67 340.81l71.13-.13M513 378.36l.4 17.6"/><path class="cls-6" d="M756.89 241.85l-73.2.5M581.56 212.19l48.85-.26M571.77 221.44l46.75-.26M564.08 174.58l6.56 186.31M568.72 419.09l-2.28-74.52 174.5-.44 3.58 56.81M768.79 419.9l114.45 3.26"/><path class="cls-6" d="M650.65 405.15l.71 9.97 106.51 2.54M537.32 417.44l-.42-15.21M545.49 414.88l-.28-10.89-2.22-75.21M539.5 353.45l1.49 48.59M513.04 378.35l32.92-.05M535.62 360.22l-22.09 6.65M521.22 357.75l-1.48-60.46M512.86 302.32l61.8-.18M581.95 302.55l.22 5.12M553.56 376.82l-3.16-112.41M542.73 270.61l-.81-25.47M448.69 404.6l-7.46.4"/><path class="cls-10" d="M464.62 396.2l48.49-.03"/><path class="cls-6" d="M474.5 394.69l.24 9.99M510.04 361.6l.21 12.4M513.1 345.43v2.51"/><path class="cls-33" d="M586.2 426.2h53.89"/><path class="cls-32" d="M638.86 396.96l.95 28.27"/></g><path class="cls-34" d="M473.68 175.07l90.35-.86"/><path class="cls-35" d="M671.03 179.23l-3.55-63.7"/><path class="cls-30" d="M647.54 318l135.86-.64"/><path class="cls-28" d="M528.97 412.95L522 146.51M503.7 334.69l.47 30.82"/><path class="cls-35" d="M707.33 160.24l21.08-15.73"/><path class="cls-36" d="M639.42 162.57l44.4-41.41M684.01 121.29l9.9 180.96M680.53 179.58l25.92-18.85"/><path class="cls-33" d="M671.45 180.37l20.18-15.55"/><path class="cls-31" d="M510.34 373.72l.81 31.17"/><path class="cls-34" d="M485.43 370.01l1.27 33.52M502.84 320.03l1.06 31.06M635.89 279.51l61.74-.64"/><path class="cls-33" d="M627.68 154.68l2.53 57.4"/><path class="cls-36" d="M575.99 144.88l22.55-29.29 69.25-.59"/><path class="cls-28" d="M599.03 115.34l2.22 66.21M553.72 397.63l-2.4-75.14M514.77 372.9l110.18-.12"/><path class="cls-34" d="M565.9 326.05l-2.57-68.24"/><path class="cls-9" d="M540.96 203l16.77-21.8"/><path class="cls-28" d="M292.29 271.71l.42-58.21"/><path class="cls-37" d="M180.37 414.99l.62-26.11"/><path class="cls-22" d="M172.62 231.53l-.84 51.65 28.83-.03"/><path class="cls-16" d="M161.57 190.06l-106.95 1.01"/><path class="cls-1" d="M131.43 233.07l30.48 21.86"/><path class="cls-38" d="M160.88 241.09l-1.69 77.43"/><path class="cls-39" d="M134.34 353.57l24.54-.05"/><path class="cls-40" d="M37.83 179.4l14.95-.09"/><path class="cls-41" d="M53.17 179.64l-10.96-7.68"/><path class="cls-5" d="M50.56 366.52l-63.2 1.44"/><path class="cls-42" d="M83.68 359.1l-72.71.2"/><path class="cls-43" d="M48.48 414.88l.52-12.03"/><path class="cls-8" d="M17.02 402.85l-.71 13.43"/><path class="cls-15" d="M100.01 416.87l-116.33-.09"/><path class="cls-44" d="M143.84 413.35l-90.03-.01"/><path class="cls-39" d="M143.88 413.36l29.01-.01M150.15 357.86l-.06 2.23"/><path class="cls-5" d="M221.84 309.48l-18.7.07"/><path class="cls-45" d="M147.52 403.81l-.34 10.05"/><path class="cls-46" d="M148.71 402.02l-.26 11.13M197.56 394.62l-.46 21.59"/><path class="cls-47" d="M188.27 378.62l24.87-.06"/><path class="cls-37" d="M209.47 414.44l.55-16.86"/><path class="cls-43" d="M317.79 419.6l-18.48 4"/><path class="cls-48" d="M286.95 261.92l-57.18.4"/><path class="cls-40" d="M169.31 363.66l-48.14-.06"/><path class="cls-1" d="M219.98 403.51l-.2 9.03"/><path class="cls-39" d="M269.52 375.3l-11.86-.14"/><path class="cls-30" d="M257.8 364.92l-.12 10.6"/><path class="cls-43" d="M299.02 363.64l-50.35.11"/><path class="cls-46" d="M248.48 353.96l-.08 5.34"/><path class="cls-43" d="M194.08 341.52l71.1-.08"/><path class="cls-39" d="M215.46 419.53l.47-24.37"/><path class="cls-8" d="M298.63 347.47l-.12 14.16"/><path class="cls-46" d="M337.57 354.53l-50.13.04"/><path class="cls-15" d="M168.48 361.63l-1.18 52.25"/><path stroke="#a45950" stroke-linejoin="round" stroke-width=".4" fill="none" stroke-linecap="round" d="M307.77 414.95l.11-11.11"/><path class="cls-47" d="M299.2 282.56l-49.5.01M288.9 291.59l-.32 29.86"/><path class="cls-43" d="M299 416.01l.11-18.29"/><path class="cls-44" d="M344.24 415.54l-4.98 1.15"/><path class="cls-45" d="M346.07 360.83l-37.8.03"/><path class="cls-38" d="M342.25 353.82l-.05 7.83"/><path class="cls-18" d="M236.53 416.92l52.3-.01"/><path class="cls-8" d="M268.6 404.87l-.11 8.11"/><path class="cls-43" d="M268.74 412.91l.14-8.3"/><path class="cls-46" d="M120.43 378.69l.11-3.03"/><path class="cls-50" d="M189.55 328.22l-19.39-8.26"/><path class="cls-47" d="M313.37 314.94l-.15 44.28"/><path stroke-width=".75" stroke="#088a8f" stroke-miterlimit="10" fill="none" stroke-linecap="round" d="M308.76 309.23l-.51 44.16"/><path class="cls-38" d="M300.03 230.72l-46.29.12"/><path class="cls-52" d="M170.22 330.53l-.86 31.69"/><path class="cls-4" d="M170.27 319.19l-.91 43.05"/><path class="cls-42" d="M115.8 270.21l2-52.13"/><path class="cls-53" d="M296.18 271.71l-147.94.68"/><path class="cls-15" d="M153.32 273.07l88.67-.43"/><path class="cls-7" d="M92.75 414.04l.64-20.18"/><path class="cls-52" d="M98.78 362.18l34.85 6.09"/><path class="cls-28" d="M98.91 260.75l-105.54.68"/><path class="cls-54" d="M30.75 224.98l-11.27-6.18"/><path class="cls-19" d="M47.39 354.22l21.5.16"/><path class="cls-14" d="M68.89 354.32l9.93 1.71"/><path class="cls-38" d="M54.43 190.99L37.87 179.6"/><path class="cls-42" d="M55.96 171.15l-6.59 121.91"/><path class="cls-44" d="M87.93 255.36H-21.29"/><path class="cls-55" d="M77.78 108.22l-8.61-8.78"/><path id="line" d="M-23.39 288.17a.2.2 0 01-.2-.19.2.2 0 01.2-.2l23.94-.1a.2.2 0 010 .39l-23.94.1z" fill="#e8e7e3"/><path id="line-2" data-name="line" class="cls-57" d="M247.43 416.34a.2.2 0 010-.39l16.29-1a.19.19 0 01.21.18.2.2 0 01-.18.21l-16.29 1z"/><path id="line-3" data-name="line" class="cls-58" d="M167.79 416.32h-.07a.2.2 0 110-.39h.07a.2.2 0 010 .39z"/><path id="line-4" data-name="line" class="cls-59" d="M169 363.71l-.28-.06a.2.2 0 11.08-.38l.28.06a.2.2 0 010 .39z"/><path id="line-5" data-name="line" class="cls-60" d="M168.91 365.55l-.28-.06a.2.2 0 01.08-.38l.28.06a.2.2 0 010 .39z"/><path id="line-6" data-name="line" class="cls-61" d="M126.93 362.29a.2.2 0 01-.19-.2l1.09-30.35a.2.2 0 01.2-.19.2.2 0 01.19.2l-1.09 30.35a.2.2 0 01-.2.19z"/><path id="line-7" data-name="line" class="cls-62" d="M220.73 368.12a.2.2 0 010-.39l43.66-.06a.2.2 0 010 .39l-43.66.06z"/><path id="line-8" data-name="line" class="cls-63" d="M169.37 362.22h-.07a.2.2 0 010-.39h.07a.2.2 0 110 .39z"/><path id="line-9" data-name="line" class="cls-62" d="M198.3 362.18a.2.2 0 010-.39l50-.08a.2.2 0 010 .39l-50 .08z"/><path id="line-10" data-name="line" class="cls-60" d="M298.49 363.85a.2.2 0 01-.19-.2v-1.83a.2.2 0 01.2-.19.2.2 0 01.19.2v1.83a.2.2 0 01-.2.19z"/><path id="line-11" data-name="line" d="M220.69 369.71a.2.2 0 01-.19-.2v-1.59a.2.2 0 11.39 0v1.59a.2.2 0 01-.2.2z" fill="#a45950"/><path id="line-12" data-name="line" class="cls-58" d="M.55 288.07H.49l-41.33-13.37a.2.2 0 01-.13-.25.19.19 0 01.25-.13L.61 287.69a.2.2 0 01-.06.38z"/><path id="line-13" data-name="line" class="cls-63" d="M-22.17 267.9a.2.2 0 01-.2-.19.2.2 0 01.19-.2l23.87-.11a.2.2 0 010 .39l-23.87.11z"/><path id="line-14" data-name="line" class="cls-61" d="M237.14 324.4a.2.2 0 01-.19-.2l.52-28.23a.19.19 0 01.2-.19.2.2 0 01.19.2l-.52 28.23a.2.2 0 01-.2.19z"/><path id="line-15" data-name="line" class="cls-59" d="M299 305.3a.2.2 0 01-.19-.2l.2-22.55a.2.2 0 01.2-.19.2.2 0 01.19.2l-.2 22.55a.2.2 0 01-.2.19z"/><path id="line-16" data-name="line" class="cls-57" d="M237.66 296.16a.2.2 0 01-.19-.2v-.33a.19.19 0 01.2-.19.2.2 0 01.19.2v.36a.2.2 0 01-.2.16z"/><path class="cls-65" d="M170.33 149.7l-292.36 2.39"/><path class="cls-4" d="M2.22 267.66l-175.38-66.41"/><path class="cls-66" d="M-47.8 191.9l248.9-2.68"/><path class="cls-5" d="M65.89 179.1l-5.56 117.92"/><path class="cls-55" d="M86.31 178.94l-7.69 177.28"/><path class="cls-22" d="M30.88 225.04l95.2-.73"/><path class="cls-43" d="M98.91 260.75l-4.52 111.34"/><path class="cls-39" d="M101.52 414.97l.86-22.46"/><path class="cls-45" d="M-2.06 214.27l222.4-1.52"/><path class="cls-48" d="M198.43 254.65l-24.97-22.07"/><path class="cls-34" d="M171.35 283.21l-18.36-11.61"/><path class="cls-17" d="M217.21 311.9l-63.95-39.87"/><path class="cls-53" d="M148.24 272.4l1.48-40.59"/><path class="cls-38" d="M148.21 272.64l-3.64 108.56"/><path class="cls-50" d="M-7.55 272.96l22.08-.16M1.6 267.36l-4.98 89.99"/><path class="cls-48" d="M131.35 232.77l-3.34 99.1"/><path class="cls-44" d="M134.28 353.13l-.36 14.69"/><path class="cls-45" d="M133.86 367.85l-1.27 36.06"/><path class="cls-42" d="M83.28 370.61l-111.84.14M78.68 356.36l-.81 24.67"/><path class="cls-55" d="M16.04 270.35l-22.68-8.92"/><path class="cls-67" d="M214.35 328.19l-.81 39.01"/><path class="cls-42" d="M213.54 367.37l-.25 11.19"/><path class="cls-50" d="M120.16 375.61l-97.49.07"/><path class="cls-5" d="M120.16 375.44l-.08 3.21"/><path class="cls-38" d="M120.08 378.26l-.97 26.52"/><path class="cls-45" d="M120.44 378.3l-1.32 35.52"/><path class="cls-43" d="M119.13 401.67l-.26 11.96"/><path class="cls-8" d="M119.19 413.87l-.44.02"/><path class="cls-55" d="M118.52 413.89l-27.5-.02"/><path class="cls-5" d="M94.39 372.47l-1.34 31.82"/><path class="cls-18" d="M198.07 416.13l-31.38-.01"/><path class="cls-65" d="M220.84 415.14H194.1"/><path class="cls-68" d="M269.01 378.31l-.41 26.82"/><path class="cls-1" d="M296.31 378.47l-16.8.02"/><path class="cls-5" d="M269.15 378.5l10.54-.02"/><path class="cls-43" d="M296.78 327.64l-.46 51.81"/><path class="cls-1" d="M290.54 416.89l.39-14.61"/><path class="cls-4" d="M246.33 416.14l51.5.01"/><path class="cls-52" d="M308.07 414.88l-10.05 1.26"/><path class="cls-44" d="M337.31 351.97l-.1 50.27"/><path class="cls-43" d="M346.26 367.66l-.05 36.22"/><path class="cls-61" d="M308.14 367.61l.09-11.97"/><path class="cls-1" d="M339.18 403l.07-45.61"/><path class="cls-46" d="M294.88 351.36l-.07 8.18"/><path class="cls-5" d="M308.22 355.45l-43.46.07"/><path class="cls-43" d="M308.16 355.41l5.09 4.1"/><path class="cls-19" d="M214.42 359.54l58.35-.09M201.26 355.1l13.51 4.46"/><path class="cls-38" d="M273.72 371.5l.75-53.5-9.75-8.82"/><path class="cls-1" d="M298.02 415.65l.12-12.86M299 304l-.4 43.02"/><path class="cls-38" d="M296.68 327.64l-8.26-8.59M291.96 295.35l-4.43-5.85"/><path class="cls-47" d="M161.91 254.92l-2.41 77.98M158.9 353.28l-.39 14.7M308.14 368l-.26 35.89"/><path class="cls-39" d="M273.26 403.9l-.13 9.37"/><path class="cls-5" d="M279.04 413.41l.15-8.56"/><path class="cls-34" d="M157.86 414.56l-27.49.36"/><path class="cls-18" d="M130.55 414.96l-66.24.25"/><path class="cls-1" d="M167.5 413.75l.48-16.73"/><path class="cls-46" d="M298.54 361.79l43.63-.14"/><path class="cls-43" d="M308.18 367.78l-9.69-5.97M342.25 361.84l-.12 38.69"/><path class="cls-47" d="M340.62 350.75l.16 8.76"/><path class="cls-69" d="M308.22 353.08l-43.66.19"/><path class="cls-5" d="M215.83 400.78l1.25-59.35"/><path class="cls-8" d="M248.27 362.09l-11.57-4.51"/><path class="cls-46" d="M155.11 339.39l56.2-.06"/><path class="cls-45" d="M155.14 339.38l-1.01 32.28"/><path class="cls-39" d="M198.49 354.08l50.05-.09"/><path class="cls-1" d="M248.4 353.99l50.2-.04"/><path stroke="#f4f5f3" stroke-linejoin="round" stroke-width=".4" fill="none" stroke-linecap="round" d="M269.11 366.73l-.16 11.79"/><path class="cls-43" d="M287.98 375.27l-18.6.01"/><path class="cls-30" d="M264.43 367.85l-16.18-5.71"/><path stroke="#23b0ae" stroke-width=".4" stroke-miterlimit="10" fill="none" stroke-linecap="round" d="M257.79 365.01l.05-2.57"/><path class="cls-5" d="M340.73 359.54l-49.31-.11"/><path class="cls-47" d="M291.45 359.4l-.55 43.25"/><path class="cls-15" d="M220.85 309.52l44.56-.14"/><path class="cls-5" d="M287.23 319.65l-7.44-7.99"/><path class="cls-30" d="M287.27 319.35l-.63 35.18"/><path class="cls-39" d="M264.54 357.04v-1.46"/><path class="cls-5" d="M264.45 367.37v-13.59"/><path class="cls-47" d="M264.58 355.55l-15.89-7.83"/><path class="cls-30" d="M198.5 361.99l-28.1.04"/><path class="cls-5" d="M169.82 362.06l25.64 5.92"/><path class="cls-1" d="M201.53 353.43l-42.03.12h-.61"/><path class="cls-47" d="M195.43 369.75l.41-16.55M198.61 349.29l22.33 7.59M248.56 349.2l-49.94.1"/><path class="cls-68" d="M248.55 349.41l-.02-1.73"/><path class="cls-5" d="M248.48 353.96l.06-4.73"/><path class="cls-38" d="M248.57 347.96l.7-42.59"/><path class="cls-4" d="M229.57 262.27l-.54 26.76"/><path class="cls-42" d="M181.79 359.31l1.68-63.26"/><path class="cls-39" d="M183.45 296.79l.68-25.45M215.44 419.55l-53.51 3.82"/><path class="cls-55" d="M214.91 419.58l-228.92-.12"/><path class="cls-42" d="M188.29 378.38l-.7 26.76"/><path class="cls-50" d="M187.59 403.85l-.11 8.91"/><path class="cls-68" d="M181.82 359.63l16.43 4.11"/><path class="cls-47" d="M210.58 371.59l.73-32.42"/><path class="cls-5" d="M211.31 339.56l.53-23.46M196.99 307.45l-.65 25.74"/><path class="cls-39" d="M196.35 332.8l-.52 20.8"/><path class="cls-68" d="M198.42 354.13l-28.79.02"/><path class="cls-47" d="M181.8 359.75l-31.65-.25"/><path class="cls-38" d="M133.86 367.91l14.85 2.63"/><path class="cls-8" d="M154.21 371.49l-5.59-.95"/><path class="cls-52" d="M30.09 416.17l19.21-.42"/><path class="cls-44" d="M29.07 416.17l-29.22.12"/><path class="cls-43" d="M21.19 405.19l1.25-26.66"/><path class="cls-46" d="M56.57 378.8l1.01-23.03"/><path class="cls-50" d="M56.59 378.61l21.02.17"/><path class="cls-45" d="M50.56 366.42l-15.67-2.21"/><path class="cls-55" d="M83.77 359.3l.1-2.49"/><path class="cls-46" d="M83.97 359.15l-19.12-3.29"/><path class="cls-37" d="M211.12 339.34l-14.81-6.44"/><path class="cls-41" d="M151.36 178.43l-1.76 53.73"/><path class="cls-8" d="M45.89 380.65L22.4 378.6"/><path class="cls-72" d="M144.59 378.46l-66.75.09"/><path class="cls-15" d="M56.01 413.32l-35.64.54"/><path class="cls-18" d="M222.48 307.94l11.52 7.17"/><path class="cls-37" d="M234.95 315.95l-23.06.26M180.57 402.3l-.37 11.31M157.33 403.52l-.29 10.09"/><path class="cls-18" d="M168.64 363.65l27.62-.05"/><path class="cls-37" d="M220.89 369.52l-.92 34.38"/><path class="cls-41" d="M155.14 339.34l-20.06-6.19"/><path class="cls-8" d="M341.63 353.86l-43.03.09"/><path stroke="#e8e7e3" stroke-linejoin="round" stroke-width=".4" fill="none" stroke-linecap="round" d="M291.6 357.42l47.72-.06 3.1 4.71"/><path class="cls-8" d="M182.22 357.54l54.32-.02"/><path class="cls-7" d="M233.51 371.38l-23.12.04"/><path stroke="#d3c7c8" stroke-linejoin="round" stroke-width=".4" fill="none" stroke-linecap="round" d="M300.49 240.13l-138.92.77-10.95-8.15"/><path class="cls-3" d="M22.92 374.96l97.22.26"/><path stroke-width="2.5" stroke="#f4f5f3" stroke-miterlimit="10" fill="none" stroke-linecap="round" d="M299.49 230.38l-.51 52.92"/><path class="cls-3" d="M15.61 275.27L11 358.91M15.61 272.71L1.6 267.36"/><path class="cls-8" d="M54.96 273.89l-4.4 92.53"/><path class="cls-16" d="M30.72 225.17l-3.05 60.21"/><path class="cls-41" d="M65.9 179.27l8.27 6.21"/><path class="cls-3" d="M87.97 255.09l-1.41 32.1"/><path class="cls-37" d="M103.73 357.55L102 402.57"/><path class="cls-7" d="M57.58 356.25l2.75-59.22"/><path class="cls-72" d="M171.82 281.92l-2.22 72.26"/><path class="cls-16" d="M165.05 319.18l-338.36.84"/><path class="cls-37" d="M165.25 319.13l-2.37 79.03"/><path class="cls-41" d="M272.88 359.46l.38-42.57M189.6 328.2l-1.32 50.47M214.35 328.21l-24.55.04"/><path class="cls-15" d="M197.83 319.7l-27.67.26"/><path class="cls-72" d="M127.12 362.1l-1.46 40.93"/><path class="cls-15" d="M195.4 415.13l-38.93-.51"/><path class="cls-18" d="M264.77 415.15l-43.87.19"/><path class="cls-8" d="M312.75 403.99l-.08 10.81"/><path class="cls-37" d="M342.13 415.88l.01-19.93M159.5 332.62l-.61 20.93"/><path class="cls-15" d="M236.7 416.88l-55.64-.8"/><path class="cls-37" d="M167.77 404.77l.87-29.55M247.77 362.02l51-.24M342.23 363.57l-43.82.05"/><path class="cls-3" d="M239.18 214.68l-1.05 56.56"/><path class="cls-15" d="M152.76 326.38l40.89 15.15"/><path class="cls-8" d="M193.29 341.44l-198.91.67"/><path class="cls-37" d="M203.01 309.55l12.67 7.31"/><path class="cls-8" d="M201.77 353.39l19.35-.02"/><path class="cls-7" d="M196.53 362.83l17.01 4.24"/><path class="cls-37" d="M291.46 357.44l-.01 1.99"/><path class="cls-8" d="M213.28 378.36l55.99.14"/><path class="cls-37" d="M292.27 270.62l-.25 25.01"/><path class="cls-41" d="M286.92 354.66l-45.82-28.44"/><path class="cls-18" d="M250.39 305.28l-50.51.18M217.47 312.9l.57-33.8M291.7 295.64l-106.81.4"/><path class="cls-3" d="M126.72 362.09l42 .13"/><path class="cls-41" d="M147.51 404.2l1.1-33.79"/><path class="cls-8" d="M181.8 359.58l54.7-.22"/><path class="cls-15" d="M20.73 332.04l-1.63 29.94"/><path class="cls-5" d="M11.69 359.25l-15.02-1.95"/><path class="cls-7" d="M77.64 108.26l19.62-.35"/><path class="cls-15" d="M97.44 107.95l-3.07 77.48"/><path id="polyline" class="cls-16" d="M88.71 99.44l-2.4 80.8"/><path class="cls-29" d="M134.26 352.9l.77-20.69 22.88-.15"/><path class="cls-35" d="M215.82 316.92h57.56l.14-9.95"/><path class="cls-30" d="M67.71 380.54l1.18-26.3"/><path class="cls-40" d="M20.76 332.02l-31.58-6.78"/><path class="cls-45" d="M162.89 397.77l-.76 25.62"/><path class="cls-30" d="M152.73 414.53l.37-10.33"/><path class="cls-1" d="M196.32 333.12l-36.79.05"/><path class="cls-34" d="M196.51 369.79l-27.87-6.14"/><path stroke="#22b0ae" stroke-linejoin="round" stroke-width=".4" fill="none" stroke-linecap="round" d="M257.01 412.42l.67-37.17 11.08 3.24"/><path class="cls-69" d="M258.03 363.32l-60.9.05"/><path class="cls-35" d="M296.32 379.65l-16.43.07-10.37-3.15"/><path class="cls-1" d="M233.76 371.95l-.82 41.95"/><path class="cls-67" d="M250.22 231.05l-10.98-16.54"/><path class="cls-69" d="M250.69 231.36l-1.04 52.05"/><path class="cls-52" d="M287.06 288.9l-58.15.1"/><path class="cls-66" d="M158.42 368.2l-31.3-6.1"/><path class="cls-40" d="M86.39 179.14l64.77-.52"/><path class="cls-28" d="M74.24 185.48l20.1-.09"/><path class="cls-29" d="M27.93 285.45l20.95 7.5-12.99.31"/><path class="cls-17" d="M169.57 354.34l-.97 21.22"/><path class="cls-30" d="M132.18 414.91l.37-10.89"/><path class="cls-45" d="M83.28 370.99l-1.43 33.22"/><path class="cls-34" d="M299.01 282.35l14.38 24.31.16 8.46M248.4 347.68l50.35-.17"/><path class="cls-40" d="M159.7 277.73l-3.13 102.62"/><path class="cls-28" d="M168.53 375.4l-47.83.07"/><path class="cls-30" d="M263.88 403.5l-.15 11.84M296.31 378.47l-8.35-3.23"/><path class="cls-34" d="M287.4 289.26l-7.84-10.64"/><path class="cls-69" d="M154.16 371.43h56.47"/><path class="cls-1" d="M273.86 371.29l39.18-.03M181.79 357.41l16.7 4.62 49.53-.13"/><path class="cls-35" d="M238.13 272.05l-.99 52.35-19.93-12.5"/><path class="cls-69" d="M269.11 366.96l-55.38.09"/><path class="cls-1" d="M220.53 367.92l43.83-.06"/><path class="cls-30" d="M308.15 367.76l.08-14.68"/><path class="cls-17" d="M221.03 353.55l.87-43.47"/><path class="cls-28" d="M249.65 282.71l23.71 23.95 39.46-.37"/><path class="cls-40" d="M216.95 312.27l62.84-.61"/><path class="cls-28" d="M180.57 402.69l1.17-43.28"/><path class="cls-1" d="M264.52 355.58l-43.56.08"/><path class="cls-30" d="M144.52 381.07l-.83 32.79"/><path class="cls-34" d="M33.73 365.15l2.07-40.35"/><path class="cls-17" d="M77.74 108.25l-3.57 77.23"/><path class="cls-4" d="M86.08 179.17l8.25 6.23M188.48 413.33l-21.47.56"/><path class="cls-19" d="M293.43 213.9l6.28 16.07"/><path class="cls-48" d="M46.44 377.76l-23.68-2.22"/><path class="cls-40" d="M345.97 360.3l-4.86-9.02"/><path class="cls-68" d="M103.95 357.76l46.16-.1M120.62 378.19l-98.2.42M21.06 404.4l-.5 9.66M197.15 308l14.72 8.25M201.57 355.39l20.01.02"/><path class="cls-77" d="M289.2 363.29l-90.92-.51"/><path class="cls-68" d="M273.67 371.12l-.42 33.17"/><path stroke-width=".25" stroke="#f9c996" stroke-miterlimit="10" fill="none" stroke-linecap="round" d="M27.68 286.05l-5.08 88.19-.15 4.44"/><path class="cls-77" d="M115.65 270.06l-17.32-9.35-10.4-5.35"/><path class="cls-54" d="M82.23 394.77l-.66 19.53"/><path class="cls-77" d="M120.61 375.37l24.47 3.23"/><path class="cls-24" d="M83.76 358.92l-.48 11.75 11.11 1.42"/><path class="cls-79" d="M296.35 379.65l-8.44-3.1-18.39.02"/><path stroke="#f9aa19" stroke-linejoin="round" stroke-width=".4" fill="none" stroke-linecap="round" d="M308.16 367.8l38.14-.05-.23-6.92"/><path class="cls-68" d="M339.17 396.58l-.33 19.79"/><path class="cls-77" d="M318.11 341.17l-53.82.13"/><path class="cls-68" d="M241.91 272.56l-.92 53.63M247.64 403.19l.67-39.42-11.75-4.52"/><path class="cls-77" d="M272.07 359.38l41.44-.15"/><path class="cls-68" d="M291.4 357.39l-54.86.13M220.99 353.32l-.1 16.17M287.24 319.65l.26-30.2M264.53 356.76l-15.99-7.53"/><path class="cls-79" d="M291.77 270.76l-53.65.11-7.83-8.56"/><path class="cls-68" d="M218.48 279.63l18.87 15.9M318.03 418.72l-102.58-.02M198.32 363.81l-.96 39.2M150.09 359.69l-1.38 42.61"/><path class="cls-77" d="M92.64 414.34l-108.35.19"/><path class="cls-68" d="M54.88 413.53l1.67-34.75M46.44 376.65l.97-22.27"/><path class="cls-77" d="M286.93 261.9l5.03 9.14"/><path class="cls-68" d="M237.14 324.07l-.63 35.19"/><path class="cls-39" d="M33.6 364.16L31 415.75M346.25 414.74l-.04-15M150.47 357.66l31.32-.07M150.47 357.72l18.88 4.51M308.27 360.86l-13.1-9.59M196.89 370.02l23.81-.23"/><path class="cls-10" d="M120.63 378.52l23.78 2.71"/><path class="cls-50" d="M86.82 287.51l-2.94 69.69M27.81 285.42l-35.35-12.46M49.55 293.23l10.78 3.88M-173.25 230.22l205.19 66.99"/><path class="cls-4" d="M41.84 171.36l-6.42 121.9"/><path class="cls-50" d="M47.39 297.15l-11.93-4.07"/><path stroke-linejoin="round" stroke="#f58220" fill="none" stroke-linecap="round" d="M184.16 271.44l16.55 11.63-.36 22.39"/><path class="cls-4" d="M-14.67 313.2l50.56 12.56"/><path class="cls-50" d="M296.36 230.9l-.36 40.81M154.16 371.27l-1.06 33.04"/><path class="cls-9" d="M156.57 380.46l-11.99-1.87"/><path class="cls-50" d="M94.44 372.1l26.66 3.55M125.03 415.96l1.07-24.72"/><path class="cls-39" d="M268.95 404.59l.36-29.3"/><path class="cls-4" d="M337.2 416.06l.05-32.54"/><path class="cls-39" d="M279.76 378.48l-.58 26.51M157.34 415l-25.1.03M195.48 367.94l-37.05.02-1.1 35.71M188.43 378.63l-40.52.11M247.64 403.3l-.12 13.21M165.19 319.27l5.14-169.79M220.72 367.89l-22.61-5.91M209.84 404.31l.75-32.89M95.75 416.11l-81.25-.02"/><path class="cls-50" d="M17 403.23l2.16-40.79"/><path class="cls-39" d="M48.96 403.53l1.78-37.17"/><path class="cls-50" d="M20.99 332.02l107.01.2"/><path class="cls-4" d="M-14.16 357.93l33.41 4.11"/><path class="cls-39" d="M33.6 364.16l-41.84.07M198.61 349.14l1.08-41.48M272.66 359.64l-7.79-3.81"/><path class="cls-50" d="M287.46 289.61l.11-27.67"/><path class="cls-39" d="M202.94 309.67l-1.44 45.54M318.36 344.57l-18.15-21.09"/><path class="cls-4" d="M269.01 367.18l-11.17-4.88M288.57 318.11l-.49 45.13"/><path class="cls-39" d="M298.64 361.87l-11.9-7.35M298.5 363.46l-.36 39.92M279.44 311.8l.17-33.06M298.49 363.6l-6.91-4.18M194.45 341.89l42.51 15.77M153.21 326.45l87.78-.15M264.57 353.25l-43.57.11M264.55 357.1l-43.59-.22"/><path class="cls-2" d="M257.87 365.12l30.21.25-.12 9.87"/><path class="cls-39" d="M249.29 306.38l.36-22.87"/><path class="cls-4" d="M300.13 305.1l-50.9.18"/><path class="cls-82" d="M181.4 417.88l32.39.02M131.66 232.75l41.67-.08"/><path class="cls-4" d="M149.34 231.97l147.22-.88M280.31 311.98l-38.06-39.4M197.59 319.71l16.76 8.5"/><path class="cls-82" d="M52.97 179.27L47.2 297.29"/><path class="cls-27" d="M-40.97 274.38l96.11-.28 31.94 13.43"/><path stroke-width="2.5" stroke="#f9aa19" stroke-linejoin="round" fill="none" stroke-linecap="round" d="M296.36 231.1l3.83 9.32-.53 38.32-3.3-6.69"/><path class="cls-82" d="M279.61 295.71l20.5 27.7"/><path class="cls-39" d="M313.57 315.77l-.86 88.5"/><path class="cls-84" d="M78.13 381.01l-9.98-1.04-22.13.03.32-5.08"/><path class="cls-19" d="M41.88 171.45l13.21-.21"/><path class="cls-7" d="M312.68 414.77l-41.57-.33"/><path class="cls-18" d="M309.03 308.78l-43.5.58"/><path class="cls-42" d="M202.41 190.97l-31.85-40.88"/><path id="polyline-2" data-name="polyline" class="cls-9" d="M97.39 107.96l-8.68-8.52-19.37.29"/><path class="cls-4" d="M161.13 242.05l1.51-51.36-11.34-12.26"/><path class="cls-34" d="M66.4 179.27l-11.23-8.03"/><path class="cls-15" d="M66.4 179.29l3-79.44"/><path class="cls-84" d="M37.84 179.3l-6.09 118.11 15.26-.22"/><path class="cls-38" d="M98.74 362.18l-1.65 41.04"/><path class="cls-50" d="M97.09 403.27l-.54 12.82"/><path class="cls-44" d="M219.85 212.93l-19.12-24.38"/><path class="cls-4" d="M169.02 331.61l-41.34.28-22.31-7.21M103.75 358.86l1.35-34.33"/><path class="cls-50" d="M103.5 357.71l-115.03.33M98.74 362.12l-79.58-.05"/><path stroke-width=".75" stroke="#f4f5f3" stroke-linejoin="round" fill="none" stroke-linecap="round" d="M310.69 317.8h3.46l-39.59.09"/><path class="cls-82" d="M78.63 381.39l65.87-.03"/><path class="cls-77" d="M340.22 416.91l-50.51-.02"/><path class="cls-52" d="M346.3 415.15l-37.83-.2"/><path class="cls-4" d="M293.98 351.36l47-.09"/><path class="cls-39" d="M317.94 419.67l.52-78.12"/><path class="cls-38" d="M299.84 318.78l-134.6.4"/><path class="cls-39" d="M299.06 398.1l.78-79.32"/><path class="cls-4" d="M162.75 423.36l136.21.26"/><path class="cls-18" d="M162.75 423.36l-306.06.04"/><path class="cls-69" d="M57.72 355.99l-10.32-1.62"/><path class="cls-39" d="M57.65 356.04h20.66"/><path class="cls-16" d="M64.9 355.66l-2.71 59.24"/><path class="cls-9" d="M279.5 278.76l-61.3.57 1.5-66.27"/><path class="cls-4" d="M118.19 218.6l8.08 5.82"/><path class="cls-7" d="M-7.75 288.07l94.83-.54"/><path class="cls-34" d="M117.87 218.32l-98.3.47M19.07 218.95l-3.37 54.13"/><path class="cls-9" d="M198.7 254.92l-1.52 52.54 24.72-.01"/><path class="cls-34" d="M184.21 271.44l-31.5.38"/><path stroke-width=".25" stroke="#22b0ae" stroke-miterlimit="10" fill="none" stroke-linecap="round" d="M159.84 279.53l138.44-.79"/><path class="cls-82" d="M126.29 224.4l-5.59 139.26"/><path class="cls-19" d="M152.59 271.67l-2.24 85.65"/><path class="cls-52" d="M105.17 324.51l-117 .21M15.59 270.49l100.09-.48"/><path class="cls-39" d="M264.46 367.67l-.51 36.22"/><path class="cls-4" d="M233.78 371.34l39.94-.22"/><path class="cls-44" d="M234.84 314.93l-1.07 56.61"/><path class="cls-4" d="M268.55 413.18l-80.91.18"/><path class="cls-43" d="M264.47 356.64l-.03 10.91"/><path class="cls-68" d="M265.27 309.18l-.66 44.16"/><path class="cls-52" d="M147.9 416.85l-52-.01"/><path class="cls-82" d="M147.71 416.84l32.55-.66"/><path class="cls-9" d="M169.25 375.23l27.02.11 20.04 2.85"/><path class="cls-4" d="M239.21 214.34l53.86-.37"/><path class="cls-39" d="M161.93 254.92l36.75.01"/><path class="cls-48" d="M278.68 413.69l-15.14 1.1"/><path class="cls-43" d="M346.3 367.75l-4.05-5.91"/></svg>